<?xml version="1.0" encoding="UTF-8"?>
<svg id="Ebene_1" xmlns="http://www.w3.org/2000/svg" viewBox="0 0 256 256">
  <defs>
    <style>
      .cls-1 {
        fill: #f6f6f6;
      }

      .cls-2 {
        fill: #191919;
      }
    </style>
  </defs>
  <rect class="cls-2" x="-.81" y="-1.06" width="257.42" height="257.42"/>
  <g>
    <path class="cls-1" d="M51.14,176.21v-93.12h59.86v15.96h-42.3v22.22h38.58v15.96h-38.58v23.01h43.1v15.96h-60.66Z"/>
    <g>
      <path class="cls-1" d="M124.03,121.03v-15.43h12.24v-62.26h-12.24v-15.43h38.31c12.51,0,22.02,3.17,28.54,9.51,6.52,6.34,9.78,15.76,9.78,28.27v17.56c0,12.5-3.26,21.93-9.78,28.27-6.52,6.34-16.03,9.51-28.54,9.51h-38.31ZM153.83,105.07h8.78c7.09,0,12.28-1.86,15.56-5.59,3.28-3.72,4.92-8.96,4.92-15.7v-18.62c0-6.83-1.64-12.08-4.92-15.76-3.28-3.68-8.47-5.52-15.56-5.52h-8.78v61.2Z"/>
      <path class="cls-1" d="M160.48,231.38c-7.63,0-14.17-1.4-19.62-4.19-5.45-2.79-9.62-6.78-12.5-11.97-2.88-5.19-4.32-11.33-4.32-18.43v-60.4h17.56v60.93c0,5.68,1.62,10.16,4.86,13.44,3.24,3.28,7.92,4.92,14.03,4.92s10.8-1.64,14.03-4.92c3.24-3.28,4.86-7.76,4.86-13.44v-60.93h17.56v60.4c0,7.1-1.44,13.24-4.32,18.43-2.88,5.19-7.05,9.18-12.5,11.97-5.45,2.79-12,4.19-19.62,4.19Z"/>
    </g>
  </g>
</svg>