<?xml version="1.0" encoding="UTF-8"?>
<svg id="Ebene_1" xmlns="http://www.w3.org/2000/svg" viewBox="0 0 256 256">
  <defs>
    <style>
      .cls-1 {
        fill: #f6f6f6;
      }

      .cls-2 {
        fill: #191919;
      }
    </style>
  </defs>
  <rect class="cls-2" x="-.81" y="-.71" width="257.42" height="257.42"/>
  <path class="cls-1" d="M52.31,173.17c-6.41,0-12.07-1.36-16.96-4.09-4.9-2.73-8.71-6.58-11.44-11.57-2.73-4.98-4.1-10.85-4.1-17.61v-1.56c0-6.76,1.34-12.63,4.03-17.61,2.69-4.98,6.46-8.84,11.31-11.57,4.85-2.73,10.49-4.09,16.9-4.09s11.83,1.41,16.51,4.22c4.68,2.82,8.32,6.72,10.92,11.7,2.6,4.98,3.9,10.77,3.9,17.35v5.59h-46.93c.17,4.42,1.82,8.02,4.94,10.79,3.12,2.78,6.93,4.16,11.44,4.16s7.97-1,10.14-2.99c2.17-1.99,3.81-4.2,4.94-6.63l13.39,7.02c-1.21,2.25-2.97,4.7-5.27,7.34-2.3,2.64-5.35,4.9-9.17,6.76-3.81,1.86-8.67,2.79-14.56,2.79ZM36.58,131.71h30.16c-.35-3.73-1.84-6.71-4.49-8.97-2.64-2.25-6.09-3.38-10.33-3.38s-7.93,1.13-10.53,3.38c-2.6,2.25-4.2,5.24-4.81,8.97Z"/>
  <path class="cls-1" d="M122.94,173.17c-5.11,0-9.9-1.28-14.37-3.83-4.46-2.55-8.04-6.3-10.73-11.24-2.69-4.94-4.03-10.92-4.03-17.94v-2.08c0-7.02,1.34-13,4.03-17.94,2.69-4.94,6.24-8.69,10.66-11.24,4.42-2.56,9.23-3.83,14.43-3.83,3.9,0,7.17.45,9.81,1.36,2.64.91,4.79,2.06,6.44,3.45,1.65,1.39,2.9,2.86,3.77,4.42h2.34v-33.93h16.38v91h-16.12v-7.8h-2.34c-1.47,2.43-3.75,4.64-6.82,6.63-3.08,1.99-7.56,2.99-13.46,2.99ZM127.88,158.87c5.03,0,9.23-1.62,12.61-4.88s5.07-8,5.07-14.23v-1.3c0-6.24-1.67-10.98-5.01-14.23-3.34-3.25-7.56-4.88-12.67-4.88s-9.23,1.62-12.61,4.88c-3.38,3.25-5.07,8-5.07,14.23v1.3c0,6.24,1.69,10.98,5.07,14.23,3.38,3.25,7.58,4.88,12.61,4.88Z"/>
  <path class="cls-1" d="M198.68,172.4c-5.03,0-9.42-1.15-13.2-3.45-3.77-2.29-6.69-5.48-8.77-9.55-2.08-4.07-3.12-8.75-3.12-14.04v-38.48h16.38v37.18c0,4.85,1.19,8.49,3.58,10.92,2.38,2.43,5.79,3.64,10.21,3.64,5.03,0,8.92-1.67,11.7-5,2.77-3.33,4.16-8,4.16-13.98v-32.76h16.38v64.48h-16.12v-8.45h-2.34c-1.04,2.17-2.99,4.29-5.85,6.37s-7.19,3.12-13,3.12Z"/>
</svg>