<svg id="Page-1" xmlns="http://www.w3.org/2000/svg" width="56.017" height="56.017" viewBox="0 0 56.017 56.017">
  <g id="Dribbble-Light-Preview">
    <g id="icons">
      <path id="github-_142_" data-name="github-[#142]" d="M112.008,7399c15.469,0,28.008,12.855,28.008,28.717a28.665,28.665,0,0,1-19.138,27.247c-1.42.282-1.924-.613-1.924-1.379,0-.946.034-4.038.034-7.882,0-2.675-.9-4.424-1.9-5.315,6.237-.711,12.791-3.141,12.791-14.171a11.239,11.239,0,0,0-2.885-7.707,10.537,10.537,0,0,0-.274-7.6s-2.347-.771-7.694,2.943a25.946,25.946,0,0,0-14.027,0c-5.352-3.714-7.705-2.943-7.705-2.943a10.578,10.578,0,0,0-.272,7.6,11.279,11.279,0,0,0-2.885,7.707c0,11,6.54,13.468,12.761,14.193a6.178,6.178,0,0,0-1.779,3.84c-1.6.734-5.652,2-8.15-2.386,0,0-1.482-2.761-4.294-2.96,0,0-2.731-.037-.19,1.745,0,0,1.835.882,3.109,4.2,0,0,1.644,5.126,9.436,3.39.014,2.4.039,4.663.039,5.346,0,.758-.515,1.648-1.913,1.381A28.662,28.662,0,0,1,84,7427.716C84,7411.855,96.542,7399,112.008,7399" transform="translate(-84 -7399)" fill="#faf8f8" fill-rule="evenodd"/>
    </g>
  </g>
</svg>
