<svg xmlns="http://www.w3.org/2000/svg" width="56.077" height="56.077" viewBox="0 0 56.077 56.077">
  <path id="linkedin-round-svgrepo-com" d="M-114.961,145A28.037,28.037,0,0,0-143,173.039a28.037,28.037,0,0,0,28.039,28.039,28.037,28.037,0,0,0,28.039-28.039A28.037,28.037,0,0,0-114.961,145Zm-7.842,39.769h-5.465V167.278h5.465Zm-2.881-19.682h-.044a3.034,3.034,0,0,1-3.264-3.034,3.064,3.064,0,0,1,3.341-3.034,3.05,3.05,0,0,1,3.3,3.034A3.049,3.049,0,0,1-125.684,165.087Zm24.742,19.682h-6.2v-9.047c0-2.366-.964-3.987-3.1-3.987a3.124,3.124,0,0,0-2.957,2.147,4.134,4.134,0,0,0-.131,1.435v9.452h-6.144s.077-16.035,0-17.491h6.144v2.749c.361-1.2,2.322-2.913,5.454-2.913,3.888,0,6.933,2.519,6.933,7.93Z" transform="translate(143 -145)" fill="#faf8f8"/>
</svg>
