<svg xmlns="http://www.w3.org/2000/svg" width="56" height="56" viewBox="0 0 56 56">
  <path id="Differenzmenge_1" data-name="Differenzmenge 1" d="M28,56a28.207,28.207,0,0,1-5.643-.569,27.847,27.847,0,0,1-10.012-4.213A28.082,28.082,0,0,1,2.2,38.9,27.859,27.859,0,0,1,.569,33.643a28.273,28.273,0,0,1,0-11.286A27.846,27.846,0,0,1,4.782,12.345,28.082,28.082,0,0,1,17.1,2.2,27.859,27.859,0,0,1,22.357.569a28.273,28.273,0,0,1,11.286,0A27.847,27.847,0,0,1,43.655,4.782,28.082,28.082,0,0,1,53.8,17.1a27.859,27.859,0,0,1,1.632,5.256,28.273,28.273,0,0,1,0,11.286,27.847,27.847,0,0,1-4.213,10.012A28.082,28.082,0,0,1,38.9,53.8a27.859,27.859,0,0,1-5.256,1.632A28.207,28.207,0,0,1,28,56ZM16,14.953a4.6,4.6,0,0,0-3.257,1.35,4,4,0,0,0-.313.347,4.551,4.551,0,0,0-.947,2.014,4.463,4.463,0,0,0-.09.9V36.416a4.632,4.632,0,0,0,1.35,3.257c.106.105.209.2.317.292A4.6,4.6,0,0,0,16,41.023H40a4.582,4.582,0,0,0,2.94-1.063,4.029,4.029,0,0,0,.317-.287,4.577,4.577,0,0,0,.973-1.427v0a4.542,4.542,0,0,0,.377-1.825V19.561a4.729,4.729,0,0,0-.086-.9,4.6,4.6,0,0,0-.951-2.014,3.946,3.946,0,0,0-.313-.347A4.6,4.6,0,0,0,40,14.953ZM40,38.666H16a2.226,2.226,0,0,1-1.114-.3L24.486,30l.9.78a3.988,3.988,0,0,0,5.241,0l.9-.78,9.6,8.366A2.23,2.23,0,0,1,40,38.666Zm2.246-2.151-9.1-7.928,9.1-7.941V36.416a.693.693,0,0,1,0,.1Zm-28.491,0h0a.681.681,0,0,1,0-.1V20.641l9.1,7.941ZM28,29.623a1.831,1.831,0,0,1-1.213-.454L14.213,18.2a1.687,1.687,0,0,1,.2-.231A2.236,2.236,0,0,1,16,17.31H40a2.214,2.214,0,0,1,1.792.9L29.213,29.169A1.814,1.814,0,0,1,28,29.623Z" fill="#faf8f8"/>
</svg>
